<svg width="30" height="30" viewBox="0 0 30 30" fill="none" xmlns="http://www.w3.org/2000/svg">
<path d="M15 1.2002C7.39084 1.2002 1.20004 7.391 1.20004 15.0002C1.20004 17.3762 1.81384 19.7126 2.97784 21.7742L1.22224 28.0382C1.16464 28.244 1.22044 28.4648 1.36924 28.6178C1.48384 28.736 1.63984 28.8002 1.80004 28.8002C1.84804 28.8002 1.89664 28.7942 1.94404 28.7828L8.48164 27.1634C10.4778 28.235 12.726 28.8002 15 28.8002C22.6092 28.8002 28.8 22.6094 28.8 15.0002C28.8 7.391 22.6092 1.2002 15 1.2002ZM21.942 19.8698C21.6468 20.687 20.2308 21.4328 19.5504 21.533C18.9396 21.6224 18.1668 21.6608 17.3184 21.3944C16.8042 21.2324 16.1442 21.0176 15.2988 20.657C11.745 19.1414 9.42424 15.608 9.24664 15.3746C9.06964 15.1412 7.80004 13.478 7.80004 11.7566C7.80004 10.0352 8.71504 9.1886 9.04024 8.8382C9.36544 8.4878 9.74884 8.4002 9.98524 8.4002C10.2216 8.4002 10.4574 8.4032 10.6644 8.4128C10.8822 8.4236 11.1744 8.3306 11.4618 9.0134C11.757 9.7142 12.4656 11.4356 12.5532 11.6114C12.642 11.7866 12.7008 11.9912 12.5832 12.2246C12.4656 12.458 12.4068 12.6038 12.2292 12.8084C12.0516 13.013 11.8572 13.2644 11.6976 13.4216C11.52 13.5962 11.3358 13.7852 11.5422 14.1356C11.7486 14.486 12.4596 15.6314 13.5132 16.559C14.8662 17.7506 16.008 18.1202 16.362 18.2954C16.716 18.4706 16.923 18.4412 17.1294 18.2078C17.3358 17.9738 18.015 17.186 18.2508 16.8362C18.4866 16.4864 18.723 16.544 19.0482 16.661C19.3734 16.7774 21.1152 17.6234 21.4692 17.7986C21.8232 17.9738 22.0596 18.0614 22.1484 18.2072C22.2372 18.3524 22.2372 19.0532 21.942 19.8698Z" fill="white"/>
</svg>
