<svg width="208" height="45" viewBox="0 0 208 45" fill="none" xmlns="http://www.w3.org/2000/svg">
<path d="M50.904 36L42.444 25.92H46.26L54.756 35.964V36H50.904ZM29.016 36V10.116H50.616C51.408 10.116 52.128 10.32 52.776 10.728C53.448 11.112 53.976 11.628 54.36 12.276C54.744 12.924 54.936 13.644 54.936 14.436V22.032C54.936 22.824 54.744 23.544 54.36 24.192C53.976 24.84 53.448 25.368 52.776 25.776C52.128 26.16 51.408 26.352 50.616 26.352H31.932V36H29.016ZM33.336 23.4H50.616C51 23.4 51.324 23.268 51.588 23.004C51.876 22.74 52.02 22.416 52.02 22.032V14.436C52.02 14.052 51.876 13.728 51.588 13.464C51.324 13.176 51 13.032 50.616 13.032H33.336C32.952 13.032 32.616 13.176 32.328 13.464C32.064 13.728 31.932 14.052 31.932 14.436V22.032C31.932 22.416 32.064 22.74 32.328 23.004C32.616 23.268 32.952 23.4 33.336 23.4ZM62.899 36C62.107 36 61.375 35.808 60.703 35.424C60.055 35.016 59.527 34.488 59.119 33.84C58.735 33.168 58.543 32.436 58.543 31.644V19.476C58.543 18.684 58.735 17.964 59.119 17.316C59.527 16.644 60.055 16.116 60.703 15.732C61.375 15.324 62.107 15.12 62.899 15.12H75.427C76.243 15.12 76.975 15.324 77.623 15.732C78.295 16.116 78.823 16.644 79.207 17.316C79.615 17.964 79.819 18.684 79.819 19.476V31.644C79.819 32.436 79.615 33.168 79.207 33.84C78.823 34.488 78.295 35.016 77.623 35.424C76.975 35.808 76.243 36 75.427 36H62.899ZM62.899 33.048H75.427C75.811 33.048 76.135 32.916 76.399 32.652C76.687 32.364 76.831 32.028 76.831 31.644V19.476C76.831 19.092 76.687 18.768 76.399 18.504C76.135 18.216 75.811 18.072 75.427 18.072H62.899C62.515 18.072 62.179 18.216 61.891 18.504C61.627 18.768 61.495 19.092 61.495 19.476V31.644C61.495 32.028 61.627 32.364 61.891 32.652C62.179 32.916 62.515 33.048 62.899 33.048ZM86.8528 36C86.0368 36 85.2928 35.808 84.6208 35.424C83.9728 35.016 83.4448 34.488 83.0368 33.84C82.6528 33.168 82.4608 32.436 82.4608 31.644V19.476C82.4608 18.684 82.6528 17.964 83.0368 17.316C83.4448 16.644 83.9728 16.116 84.6208 15.732C85.2928 15.324 86.0368 15.12 86.8528 15.12H100.785V8.28H103.737V36H86.8528ZM86.8528 33.048H99.3808C99.7648 33.048 100.089 32.916 100.353 32.652C100.641 32.364 100.785 32.028 100.785 31.644V19.476C100.785 19.092 100.641 18.768 100.353 18.504C100.089 18.216 99.7648 18.072 99.3808 18.072H86.8528C86.4688 18.072 86.1328 18.216 85.8448 18.504C85.5808 18.768 85.4488 19.092 85.4488 19.476V31.644C85.4488 32.028 85.5808 32.364 85.8448 32.652C86.1328 32.916 86.4688 33.048 86.8528 33.048ZM107.517 36V19.476C107.517 18.684 107.709 17.964 108.093 17.316C108.501 16.644 109.029 16.116 109.677 15.732C110.349 15.324 111.081 15.12 111.873 15.12H123.609V18.072H111.873C111.489 18.072 111.153 18.216 110.865 18.504C110.601 18.768 110.469 19.092 110.469 19.476V36H107.517ZM125.938 36V15.12H128.89V36H125.938ZM125.938 11.232V8.28H128.89V11.232H125.938ZM136.883 44.244V41.256H149.915C150.299 41.256 150.623 41.112 150.887 40.824C151.175 40.56 151.319 40.236 151.319 39.852V36H137.387C136.595 36 135.863 35.808 135.191 35.424C134.543 35.016 134.015 34.488 133.607 33.84C133.223 33.168 133.031 32.436 133.031 31.644V19.476C133.031 18.684 133.223 17.964 133.607 17.316C134.015 16.644 134.543 16.116 135.191 15.732C135.863 15.324 136.595 15.12 137.387 15.12H149.915C150.731 15.12 151.463 15.324 152.111 15.732C152.783 16.116 153.311 16.644 153.695 17.316C154.079 17.964 154.271 18.684 154.271 19.476V39.852C154.271 40.668 154.079 41.4 153.695 42.048C153.311 42.72 152.783 43.248 152.111 43.632C151.463 44.04 150.731 44.244 149.915 44.244H136.883ZM137.387 33.048H149.915C150.299 33.048 150.623 32.916 150.887 32.652C151.175 32.364 151.319 32.028 151.319 31.644V19.476C151.319 19.092 151.175 18.768 150.887 18.504C150.623 18.216 150.299 18.072 149.915 18.072H137.387C137.003 18.072 136.667 18.216 136.379 18.504C136.115 18.768 135.983 19.092 135.983 19.476V31.644C135.983 32.028 136.115 32.364 136.379 32.652C136.667 32.916 137.003 33.048 137.387 33.048ZM161.618 36C160.826 36 160.094 35.808 159.422 35.424C158.774 35.016 158.246 34.488 157.838 33.84C157.454 33.168 157.262 32.436 157.262 31.644V19.476C157.262 18.684 157.454 17.964 157.838 17.316C158.246 16.644 158.774 16.116 159.422 15.732C160.094 15.324 160.826 15.12 161.618 15.12H174.146C174.962 15.12 175.694 15.324 176.342 15.732C177.014 16.116 177.542 16.644 177.926 17.316C178.334 17.964 178.538 18.684 178.538 19.476V31.644C178.538 32.436 178.334 33.168 177.926 33.84C177.542 34.488 177.014 35.016 176.342 35.424C175.694 35.808 174.962 36 174.146 36H161.618ZM161.618 33.048H174.146C174.53 33.048 174.854 32.916 175.118 32.652C175.406 32.364 175.55 32.028 175.55 31.644V19.476C175.55 19.092 175.406 18.768 175.118 18.504C174.854 18.216 174.53 18.072 174.146 18.072H161.618C161.234 18.072 160.898 18.216 160.61 18.504C160.346 18.768 160.214 19.092 160.214 19.476V31.644C160.214 32.028 160.346 32.364 160.61 32.652C160.898 32.916 161.234 33.048 161.618 33.048Z" fill="#FEFEFE"/>
<path d="M22 11L2 23.1212L22 36" stroke="#1B6DE0" stroke-width="2"/>
<path d="M186 10L206 22.1212L186 35" stroke="#1B6DE0" stroke-width="2"/>
</svg>
